<?xml version="1.0" encoding="utf-8"?>
<!-- Generator: Adobe Illustrator 21.1.0, SVG Export Plug-In . SVG Version: 6.00 Build 0)  -->
<svg version="1.1" id="Layer_1" xmlns="http://www.w3.org/2000/svg" xmlns:xlink="http://www.w3.org/1999/xlink" x="0px" y="0px"
	 viewBox="0 0 196.3 71.4" style="enable-background:new 0 0 196.3 71.4;" xml:space="preserve">
<style type="text/css">
	.st0{fill:#6D6E6E;}
	.st1{fill:#E80A89;}
</style>
<title>original-devs</title>
<g>
	<path class="st0" d="M41.2,42.2v10.6h-13c-5.6,0-9.9-3.5-9.9-8.1V6.4C10.5,9.8,6.2,16.7,6.2,25v19.4c0,11,10,21,22,21h47.3
		c-1.8-1.5-30.1-21.6-33.1-23.8C41.9,41.2,41.2,41.6,41.2,42.2z"/>
	<path class="st1" d="M189.7,6.3H166c0,0-8.3,12.3-8.3,12.3c-0.2,0.3-0.1,0.6,0.2,0.8c0.1,0.1,0.3,0,0.5,0h3.4
		c0.5,0,0.9,0.4,0.9,0.9v0.5v25c0,0.3-0.5,0.5-0.7,0.2l-12.5-18.3c-0.2-0.3-0.2-0.7,0-0.9l13.8-20.2c0-0.1,0-0.3-0.1-0.3h-17
		c-0.7,0-1.3,0.5-1.6,1l-5.6,8.6c-0.3,0.5-1,0.5-1.3,0c0,0-6.1-9.1-6.1-9.1c-0.2-0.3-0.5-0.5-0.8-0.5H19.3c1.7,1.3,30,21.6,33,23.7
		c0.4,0.3,1.2,0.1,1.2-0.5V18.3h12.9c5.6,0,10.4,4,10.4,8.7v38.3h43.3c0,0,16.7-25.8,16.7-25.8c0.3-0.5,1-0.5,1.3,0
		c0,0,17,25.7,17,25.7h22.3c0.6,0,1.1-0.5,1.1-1.1V21.4c0-0.7,0.6-1.3,1.3-1.3h9.4c0.9,0,1.7-0.7,1.7-1.7V7.6
		C191,6.9,190.4,6.3,189.7,6.3z M110.7,44.3l-7.4,11.2c-0.2,0.3-0.7,0.5-1,0.5l-13.9,0V43.1h21.6C110.6,43.1,111,43.9,110.7,44.3z
		 M126.5,25l-9.6,14.4c-0.2,0.4-0.8,0.2-0.8-0.2v-6.5c0-0.4-0.3-0.7-0.7-0.7h-27v-7.4v-6.1h27c0.4,0,0.7-0.3,0.7-0.7V11
		c0-0.4,0.5-0.6,0.8-0.2l9.6,13.8C126.6,24.7,126.6,24.9,126.5,25z"/>
</g>
</svg>
